<svg xmlns="http://www.w3.org/2000/svg" aria-hidden="false" style="position:absolute;width:0;height:0;overflow:hidden"><defs><symbol id="footer-close" viewBox="0 0 32 32"><path d="M16.167 13.928c0-6.947 5.631-12.578 12.577-12.578z"/><path d="M16.167 15.278a1.35 1.35 0 0 1-1.35-1.35C14.817 6.248 21.065 0 28.745 0a1.35 1.35 0 1 1 0 2.7c-6.191 0-11.227 5.036-11.227 11.228a1.35 1.35 0 0 1-1.35 1.35zM15.834 18.071c0 6.947-5.631 12.578-12.578 12.578z"/><path d="M3.255 32a1.35 1.35 0 1 1 0-2.7c6.191 0 11.228-5.037 11.228-11.228a1.35 1.35 0 1 1 2.7 0c0 7.68-6.249 13.929-13.929 13.929zM18.072 16.167c6.946 0 12.577 5.631 12.577 12.577z"/><path d="M30.65 30.095a1.35 1.35 0 0 1-1.35-1.35c0-6.191-5.036-11.227-11.227-11.227a1.35 1.35 0 1 1 0-2.7c7.68 0 13.928 6.248 13.928 13.928a1.35 1.35 0 0 1-1.35 1.35zM13.929 15.833c-6.946 0-12.578-5.631-12.578-12.577z"/><path d="M13.929 17.183C6.248 17.183 0 10.935 0 3.255a1.35 1.35 0 1 1 2.7 0c0 6.191 5.037 11.227 11.228 11.227a1.35 1.35 0 1 1 0 2.7z"/><path d="M10.104 8.481a1.148 1.148 0 1 1-1.622 1.623 1.147 1.147 0 1 1 1.622-1.623zM23.519 21.895a1.15 1.15 0 0 1-1.624 1.623 1.148 1.148 0 0 1 1.624-1.623zM8.481 21.897a1.148 1.148 0 1 1 1.623 1.622 1.147 1.147 0 1 1-1.623-1.622zM21.895 8.482a1.15 1.15 0 0 1 1.624 1.624 1.148 1.148 0 0 1-1.624-1.624z"/></symbol></defs></svg>