<svg width="26" height="26" viewBox="0 0 26 26" fill="none" xmlns="http://www.w3.org/2000/svg">
<g filter="url(#filter0_ddd_6073_176)">
<path fill-rule="evenodd" clip-rule="evenodd" d="M12 20C16.9706 20 21 15.9706 21 11C21 6.02944 16.9706 2 12 2C7.02944 2 3 6.02944 3 11C3 15.9706 7.02944 20 12 20Z" fill="url(#paint0_linear_6073_176)"/>
</g>
<path fill-rule="evenodd" clip-rule="evenodd" d="M12 18.5C16.1421 18.5 19.5 15.1421 19.5 11C19.5 6.85786 16.1421 3.5 12 3.5C7.85786 3.5 4.5 6.85786 4.5 11C4.5 15.1421 7.85786 18.5 12 18.5Z" fill="url(#paint1_linear_6073_176)"/>
<path fill-rule="evenodd" clip-rule="evenodd" d="M12 17.5C15.5899 17.5 18.5 14.5899 18.5 11C18.5 7.41015 15.5899 4.5 12 4.5C8.41015 4.5 5.5 7.41015 5.5 11C5.5 14.5899 8.41015 17.5 12 17.5Z" fill="url(#paint2_linear_6073_176)"/>
<defs>
<filter id="filter0_ddd_6073_176" x="0" y="0" width="26" height="26" filterUnits="userSpaceOnUse" color-interpolation-filters="sRGB">
<feFlood flood-opacity="0" result="BackgroundImageFix"/>
<feColorMatrix in="SourceAlpha" type="matrix" values="0 0 0 0 0 0 0 0 0 0 0 0 0 0 0 0 0 0 127 0" result="hardAlpha"/>
<feOffset dx="1" dy="2"/>
<feGaussianBlur stdDeviation="2"/>
<feColorMatrix type="matrix" values="0 0 0 0 0 0 0 0 0 0 0 0 0 0 0 0 0 0 0.1 0"/>
<feBlend mode="normal" in2="BackgroundImageFix" result="effect1_dropShadow_6073_176"/>
<feColorMatrix in="SourceAlpha" type="matrix" values="0 0 0 0 0 0 0 0 0 0 0 0 0 0 0 0 0 0 127 0" result="hardAlpha"/>
<feOffset dy="2"/>
<feGaussianBlur stdDeviation="1"/>
<feColorMatrix type="matrix" values="0 0 0 0 0 0 0 0 0 0 0 0 0 0 0 0 0 0 0.1 0"/>
<feBlend mode="normal" in2="effect1_dropShadow_6073_176" result="effect2_dropShadow_6073_176"/>
<feColorMatrix in="SourceAlpha" type="matrix" values="0 0 0 0 0 0 0 0 0 0 0 0 0 0 0 0 0 0 127 0" result="hardAlpha"/>
<feOffset dx="1" dy="1"/>
<feGaussianBlur stdDeviation="1"/>
<feColorMatrix type="matrix" values="0 0 0 0 0 0 0 0 0 0 0 0 0 0 0 0 0 0 0.1 0"/>
<feBlend mode="normal" in2="effect2_dropShadow_6073_176" result="effect3_dropShadow_6073_176"/>
<feBlend mode="normal" in="SourceGraphic" in2="effect3_dropShadow_6073_176" result="shape"/>
</filter>
<linearGradient id="paint0_linear_6073_176" x1="12" y1="2" x2="12" y2="20" gradientUnits="userSpaceOnUse">
<stop stop-color="white"/>
<stop offset="1" stop-color="#F7F7F7"/>
</linearGradient>
<linearGradient id="paint1_linear_6073_176" x1="12" y1="3.5" x2="12" y2="18.5" gradientUnits="userSpaceOnUse">
<stop stop-color="#DADADA"/>
<stop offset="0.629167" stop-color="#F0EFEF"/>
<stop offset="1" stop-color="white"/>
</linearGradient>
<linearGradient id="paint2_linear_6073_176" x1="12" y1="4.5" x2="12" y2="17.5" gradientUnits="userSpaceOnUse">
<stop stop-color="white"/>
<stop offset="1" stop-color="#F7F7F7"/>
</linearGradient>
</defs>
</svg>
