<svg aria-hidden="true" style="position: absolute; width: 0; height: 0; overflow: hidden;" version="1.1"
  xmlns="http://www.w3.org/2000/svg" xmlns:xlink="http://www.w3.org/1999/xlink">
  <defs>
    <symbol id="icon-arrow-narrow-right" viewBox="0 0 32 32">
      <path fill="none" stroke="#eac645" style="stroke: var(--color1, #eac645)" stroke-linejoin="round"
        stroke-linecap="round" stroke-miterlimit="4" stroke-width="3.2"
        d="M5.333 16h21.333M26.667 16l-8-8M26.667 16l-8 8"></path>
    </symbol>
    <symbol id="icon-fi-ss-caret-down" viewBox="0 0 28 32">
      <path fill="#fff" style="fill: var(--color2, #fff)"
        d="M5.897 12h16.513l-7.423 8.391c-0.221 0.25-0.521 0.39-0.834 0.39s-0.613-0.14-0.834-0.39l-7.423-8.391z"></path>
    </symbol>
    <symbol id="icon-uil_cart" viewBox="0 0 32 32">
      <path
        d="M25.334 9.333h-4v-1.333c0-1.415-0.562-2.771-1.562-3.771s-2.357-1.562-3.771-1.562c-1.415 0-2.771 0.562-3.771 1.562s-1.562 2.357-1.562 3.771v1.333h-4c-0.354 0-0.693 0.14-0.943 0.391s-0.391 0.589-0.391 0.943v14.667c0 1.061 0.421 2.078 1.172 2.828s1.768 1.172 2.828 1.172h13.333c1.061 0 2.078-0.421 2.828-1.172s1.172-1.768 1.172-2.828v-14.667c0-0.354-0.14-0.693-0.391-0.943s-0.589-0.391-0.943-0.391zM13.334 8c0-0.707 0.281-1.386 0.781-1.886s1.178-0.781 1.886-0.781c0.707 0 1.385 0.281 1.886 0.781s0.781 1.178 0.781 1.886v1.333h-5.333v-1.333zM24 25.333c0 0.354-0.14 0.693-0.391 0.943s-0.589 0.391-0.943 0.391h-13.333c-0.354 0-0.693-0.14-0.943-0.391s-0.391-0.589-0.391-0.943v-13.333h2.667v1.333c0 0.354 0.14 0.693 0.391 0.943s0.589 0.391 0.943 0.391c0.354 0 0.693-0.14 0.943-0.391s0.39-0.589 0.39-0.943v-1.333h5.333v1.333c0 0.354 0.14 0.693 0.391 0.943s0.589 0.391 0.943 0.391c0.354 0 0.693-0.14 0.943-0.391s0.391-0.589 0.391-0.943v-1.333h2.667v13.333z">
      </path>
    </symbol>
    <symbol id="icon-align-left-2" viewBox="0 0 32 32">
      <path stroke-linejoin="round" stroke-linecap="round" stroke-miterlimit="4" stroke-width="2.2857"
        d="M22.666 13.334h-18.666M28 8h-24M28 18.666h-24M22.666 24h-18.666"></path>
    </symbol>
    <symbol id="icon-logo" viewBox="0 0 125 32">
      <path fill="#f6f6f6" style="fill: var(--color3, #f6f6f6)"
        d="M0 2.286l14.008 13.861 13.42 13.567v-27.429h-27.429z"></path>
      <path fill="#f6f6f6" style="fill: var(--color3, #f6f6f6)"
        d="M3.82 5.91l10.237 10.139 9.649 9.845h-19.886v-19.984z"></path>
      <path fill="#4f2ee8" style="fill: var(--color4, #4f2ee8)"
        d="M23.771 25.959l-10.237-10.139-9.649-9.845h19.886v19.984z"></path>
      <path fill="#4f2ee8" style="fill: var(--color4, #4f2ee8)" d="M7.934 10.024l11.657 11.657h-11.657v-11.657z"></path>
      <path fill="#f6f6f6" style="fill: var(--color3, #f6f6f6)" d="M7.934 10.024l11.657 11.657v-11.657h-11.657z"></path>
      <path fill="#000" style="fill: var(--color5, #000)"
        d="M47.659 12.266c0-2.366-1.749-3.703-4.773-3.703h-6.315v14.709h6.665c3.045 0 4.999-1.461 4.999-4.299 0-2.201-1.317-3.333-2.859-3.6v-0.041c1.214-0.411 2.283-1.255 2.283-3.065zM39.019 14.653v-4.011h3.929c1.461 0 2.263 0.72 2.263 2.016s-0.658 1.995-2.407 1.995h-3.785zM39.019 16.483h4.299c1.543 0 2.469 0.843 2.469 2.345 0 1.378-0.638 2.366-2.736 2.366h-4.032v-4.711z">
      </path>
      <path fill="#000" style="fill: var(--color5, #000)"
        d="M54.516 23.581c-3.291 0-5.287-2.283-5.287-5.554s1.995-5.554 5.287-5.554c3.291 0 5.287 2.283 5.287 5.554s-1.995 5.554-5.287 5.554zM54.516 21.811c2.057 0 3.127-1.625 3.127-3.785 0-2.181-1.070-3.785-3.127-3.785s-3.127 1.605-3.127 3.785c0 2.16 1.070 3.785 3.127 3.785z">
      </path>
      <path fill="#000" style="fill: var(--color5, #000)"
        d="M66.027 23.581c-3.291 0-5.287-2.283-5.287-5.554s1.995-5.554 5.287-5.554c3.291 0 5.287 2.283 5.287 5.554s-1.995 5.554-5.287 5.554zM66.027 21.811c2.057 0 3.127-1.625 3.127-3.785 0-2.181-1.070-3.785-3.127-3.785s-3.127 1.605-3.127 3.785c0 2.16 1.070 3.785 3.127 3.785z">
      </path>
      <path fill="#000" style="fill: var(--color5, #000)"
        d="M72.807 8.563v14.709h2.16v-3.806l1.461-1.378 3.312 5.184h2.592l-4.423-6.603 3.991-3.909h-2.654l-4.279 4.217v-8.414h-2.16z">
      </path>
      <path fill="#000" style="fill: var(--color5, #000)"
        d="M87.539 16.915c-1.522-0.35-2.695-0.432-2.695-1.502 0-0.741 0.699-1.234 1.995-1.234 1.687 0 2.098 0.843 2.242 1.666h2.098c-0.144-1.831-1.502-3.374-4.361-3.374-2.633 0-4.155 1.378-4.155 3.106 0 2.386 2.263 2.715 3.929 3.106 1.543 0.37 2.798 0.473 2.798 1.79 0 0.658-0.638 1.399-2.139 1.399-2.222 0-2.715-0.967-2.818-2.098h-2.098c0.103 2.222 1.563 3.806 4.958 3.806 2.551 0 4.279-1.255 4.279-3.271 0-2.51-2.098-2.942-4.032-3.394z">
      </path>
      <path fill="#000" style="fill: var(--color5, #000)"
        d="M98.633 12.472c-1.769 0-2.859 0.823-3.415 1.646h-0.041v-5.554h-2.16v14.709h2.16v-6.398c0-1.563 1.131-2.571 2.715-2.571 1.502 0 2.098 0.905 2.098 2.325v6.645h2.181v-7.262c0-2.407-1.543-3.538-3.538-3.538z">
      </path>
      <path fill="#000" style="fill: var(--color5, #000)"
        d="M108.796 21.811c-1.913 0-3.045-1.461-3.045-3.23h8.064c0-3.744-1.666-6.11-5.061-6.11-3.168 0-5.163 2.139-5.163 5.554 0 3.291 1.995 5.554 5.266 5.554 2.695 0 4.258-1.522 4.793-3.518h-2.16c-0.185 0.638-0.905 1.749-2.695 1.749zM108.754 14.179c1.749 0 2.901 1.173 2.901 2.798h-5.904c0-1.625 1.255-2.798 3.003-2.798z">
      </path>
      <path fill="#000" style="fill: var(--color5, #000)" d="M115.337 8.563v14.709h2.181v-14.709h-2.181z"></path>
      <path fill="#000" style="fill: var(--color5, #000)"
        d="M124.573 10.333v-1.769c-0.432-0.082-0.905-0.144-1.44-0.144-1.728 0-2.674 0.782-2.674 3.003v1.337h-1.502v1.769h1.502v8.743h2.181v-8.743h1.934v-1.769h-1.934v-1.152c0-1.193 0.535-1.337 1.934-1.275z">
      </path>
    </symbol>

    <symbol id="icon-logo-1" viewBox="0 0 125 32">
      <path fill="#f6f6f6" style="fill: var(--color1, #f6f6f6)"
        d="M0 2.286l14.008 13.861 13.42 13.567v-27.429h-27.429z"></path>
      <path fill="#f6f6f6" style="fill: var(--color1, #f6f6f6)"
        d="M3.82 5.91l10.237 10.139 9.649 9.845h-19.886v-19.984z"></path>
      <path fill="#4f2ee8" style="fill: var(--color2, #4f2ee8)"
        d="M23.771 25.959l-10.237-10.139-9.649-9.845h19.886v19.984z"></path>
      <path fill="#4f2ee8" style="fill: var(--color2, #4f2ee8)" d="M7.934 10.024l11.657 11.657h-11.657v-11.657z"></path>
      <path fill="#f6f6f6" style="fill: var(--color1, #f6f6f6)" d="M7.934 10.024l11.657 11.657v-11.657h-11.657z"></path>
      <path fill="#f3f3f3" style="fill: var(--color3, #f3f3f3)"
        d="M47.659 12.266c0-2.366-1.749-3.703-4.773-3.703h-6.315v14.709h6.665c3.045 0 4.999-1.461 4.999-4.299 0-2.201-1.317-3.333-2.859-3.6v-0.041c1.214-0.411 2.283-1.255 2.283-3.065zM39.019 14.653v-4.011h3.929c1.461 0 2.263 0.72 2.263 2.016s-0.658 1.995-2.407 1.995h-3.785zM39.019 16.483h4.299c1.543 0 2.469 0.843 2.469 2.345 0 1.378-0.638 2.366-2.736 2.366h-4.032v-4.711z">
      </path>
      <path fill="#f3f3f3" style="fill: var(--color3, #f3f3f3)"
        d="M54.516 23.581c-3.291 0-5.287-2.283-5.287-5.554s1.995-5.554 5.287-5.554c3.291 0 5.287 2.283 5.287 5.554s-1.995 5.554-5.287 5.554zM54.516 21.811c2.057 0 3.127-1.625 3.127-3.785 0-2.181-1.070-3.785-3.127-3.785s-3.127 1.605-3.127 3.785c0 2.16 1.070 3.785 3.127 3.785z">
      </path>
      <path fill="#f3f3f3" style="fill: var(--color3, #f3f3f3)"
        d="M66.027 23.581c-3.291 0-5.287-2.283-5.287-5.554s1.995-5.554 5.287-5.554c3.291 0 5.287 2.283 5.287 5.554s-1.995 5.554-5.287 5.554zM66.027 21.811c2.057 0 3.127-1.625 3.127-3.785 0-2.181-1.070-3.785-3.127-3.785s-3.127 1.605-3.127 3.785c0 2.16 1.070 3.785 3.127 3.785z">
      </path>
      <path fill="#f3f3f3" style="fill: var(--color3, #f3f3f3)"
        d="M72.807 8.563v14.709h2.16v-3.806l1.461-1.378 3.312 5.184h2.592l-4.423-6.603 3.991-3.909h-2.654l-4.279 4.217v-8.414h-2.16z">
      </path>
      <path fill="#f3f3f3" style="fill: var(--color3, #f3f3f3)"
        d="M87.539 16.915c-1.522-0.35-2.695-0.432-2.695-1.502 0-0.741 0.699-1.234 1.995-1.234 1.687 0 2.098 0.843 2.242 1.666h2.098c-0.144-1.831-1.502-3.374-4.361-3.374-2.633 0-4.155 1.378-4.155 3.106 0 2.386 2.263 2.715 3.929 3.106 1.543 0.37 2.798 0.473 2.798 1.79 0 0.658-0.638 1.399-2.139 1.399-2.222 0-2.715-0.967-2.818-2.098h-2.098c0.103 2.222 1.563 3.806 4.958 3.806 2.551 0 4.279-1.255 4.279-3.271 0-2.51-2.098-2.942-4.032-3.394z">
      </path>
      <path fill="#f3f3f3" style="fill: var(--color3, #f3f3f3)"
        d="M98.633 12.472c-1.769 0-2.859 0.823-3.415 1.646h-0.041v-5.554h-2.16v14.709h2.16v-6.398c0-1.563 1.131-2.571 2.715-2.571 1.502 0 2.098 0.905 2.098 2.325v6.645h2.181v-7.262c0-2.407-1.543-3.538-3.538-3.538z">
      </path>
      <path fill="#f3f3f3" style="fill: var(--color3, #f3f3f3)"
        d="M108.796 21.811c-1.913 0-3.045-1.461-3.045-3.23h8.064c0-3.744-1.666-6.11-5.061-6.11-3.168 0-5.163 2.139-5.163 5.554 0 3.291 1.995 5.554 5.266 5.554 2.695 0 4.258-1.522 4.793-3.518h-2.16c-0.185 0.638-0.905 1.749-2.695 1.749zM108.754 14.179c1.749 0 2.901 1.173 2.901 2.798h-5.904c0-1.625 1.255-2.798 3.003-2.798z">
      </path>
      <path fill="#f3f3f3" style="fill: var(--color3, #f3f3f3)" d="M115.337 8.563v14.709h2.181v-14.709h-2.181z"></path>
      <path fill="#f3f3f3" style="fill: var(--color3, #f3f3f3)"
        d="M124.573 10.333v-1.769c-0.432-0.082-0.905-0.144-1.44-0.144-1.728 0-2.674 0.782-2.674 3.003v1.337h-1.502v1.769h1.502v8.743h2.181v-8.743h1.934v-1.769h-1.934v-1.152c0-1.193 0.535-1.337 1.934-1.275z">
      </path>
    </symbol>
    <symbol id="icon-lock-02" viewBox="0 0 32 32">
      <path stroke-linejoin="round" stroke-linecap="round" stroke-miterlimit="4" stroke-width="2.2857"
        d="M22.667 14.667v-4c0-3.682-2.985-6.667-6.667-6.667s-6.667 2.985-6.667 6.667v4M10.4 28h11.2c2.24 0 3.36 0 4.216-0.436 0.753-0.383 1.365-0.995 1.748-1.748 0.436-0.856 0.436-1.976 0.436-4.216v-0.533c0-2.24 0-3.36-0.436-4.216-0.383-0.753-0.995-1.365-1.748-1.748-0.856-0.436-1.976-0.436-4.216-0.436h-11.2c-2.24 0-3.36 0-4.216 0.436-0.753 0.384-1.365 0.995-1.748 1.748-0.436 0.856-0.436 1.976-0.436 4.216v0.533c0 2.24 0 3.36 0.436 4.216 0.383 0.753 0.995 1.365 1.748 1.748 0.856 0.436 1.976 0.436 4.216 0.436z">
      </path>
    </symbol>
    <symbol id="icon-mail-02" viewBox="0 0 32 32">
      <path stroke-linejoin="round" stroke-linecap="round" stroke-miterlimit="4" stroke-width="2.2857"
        d="M28.667 24l-8.857-8M12.191 16l-8.857 8M2.667 9.333l10.886 7.621c0.882 0.617 1.322 0.926 1.802 1.045 0.424 0.106 0.866 0.106 1.29 0 0.479-0.12 0.92-0.428 1.802-1.045l10.887-7.621M9.067 26.667h13.867c2.24 0 3.36 0 4.216-0.436 0.753-0.384 1.365-0.995 1.748-1.748 0.436-0.856 0.436-1.976 0.436-4.216v-8.533c0-2.24 0-3.36-0.436-4.216-0.384-0.753-0.995-1.365-1.748-1.748-0.856-0.436-1.976-0.436-4.216-0.436h-13.867c-2.24 0-3.36 0-4.216 0.436-0.753 0.383-1.365 0.995-1.748 1.748-0.436 0.856-0.436 1.976-0.436 4.216v8.533c0 2.24 0 3.36 0.436 4.216 0.384 0.753 0.995 1.365 1.748 1.748 0.856 0.436 1.976 0.436 4.216 0.436z">
      </path>
    </symbol>
    <symbol id="icon-fi-ss-caret-down-2" viewBox="0 0 28 32">
      <path fill="#fff" style="fill: var(--color1, #fff)"
        d="M5.898 12h16.513l-7.423 8.391c-0.221 0.25-0.521 0.39-0.834 0.39s-0.613-0.14-0.834-0.39l-7.422-8.391z"></path>
    </symbol>
    <symbol id="icon-user-1" viewBox="0 0 32 32">
      <path fill="#f6f6f6" style="fill: var(--color2, #f6f6f6)"
        d="M32 16c0 8.837-7.163 16-16 16s-16-7.163-16-16c0-8.837 7.163-16 16-16s16 7.163 16 16z"></path>
      <path fill="#4f2ee8" style="fill: var(--color3, #4f2ee8)"
        d="M10.522 22.847c0-1.453 0.577-2.846 1.604-3.873s2.421-1.604 3.873-1.604c1.453 0 2.846 0.577 3.873 1.604s1.604 2.42 1.604 3.873h-10.955zM16 16.685c-2.27 0-4.108-1.838-4.108-4.108s1.838-4.108 4.108-4.108c2.27 0 4.108 1.838 4.108 4.108s-1.838 4.108-4.108 4.108z">
      </path>
    </symbol>
    <symbol id="icon-github" viewBox="0 0 32 32">
      <path fill="#283d5b" style="fill: var(--color1, #283d5b)"
        d="M21.65 14.463c-0.2-0.45-0.406-0.906-0.406-1.412 0-0.425 0.194-0.775 0.238-1.181 0.019-0.162 0.012-0.269-0.163-0.313-0.175-0.037-0.337-0.031-0.506 0.025-0.331 0.106-0.712 0.319-0.938 0.606-0.012 0.219-0.256 0.425-0.481 0.25-0.794-0.613-1.975-0.631-2.931-0.594-0.9 0.037-1.863 0.144-2.719 0.438-0.050 0.019-0.106 0.025-0.15 0.019-0.075 0-0.156-0.031-0.225-0.094-0.238-0.231-0.481-0.456-0.744-0.656-0.275-0.206-0.631-0.488-0.988-0.506-0.7-0.037-0.256 1.238-0.094 1.806 0.131 0.088 0.2 0.262 0.094 0.431-0.3 0.45-0.844 0.8-1.031 1.325-0.181 0.512-0.162 1.044-0.037 1.569 0.106 0.475 0.294 0.9 0.594 1.288 0.231 0.3 0.619 0.788 1.056 0.706 0.094-0.019 0.175 0.006 0.238 0.050 0.8 0.119 1.456 0.75 1.644 1.538 0.213 0.913-0.306 1.706-1.175 2.006-0.912 0.319-1.756 0.025-2.188-0.837-0.144-0.281-0.225-0.613-0.406-0.875-0.119-0.169-0.269-0.238-0.444-0.25 0.137 0.675 0.063 1.431 0.588 1.944 0.594 0.575 1.406 0.438 2.156 0.5 0.563 0.050 0.975 0.356 0.863 0.969-0.069 0.387-0.225 0.769-0.356 1.144-0.131 0.381-0.156 0.706-0.162 1.094 0.094 0.012 0.194 0.031 0.287 0.044 1.838 0.231 3.7-0.069 5.4-0.781-0.038-0.094-0.038-0.206 0.044-0.313 0.113-0.15 0.106-0.406 0.1-0.581-0.012-0.3-0.056-0.606-0.131-0.9-0.119-0.488-0.256-1.025-0.538-1.444-0.331-0.5-0.806-0.975-0.887-1.594-0.069-0.525 0.212-1.344 0.819-1.4 0.075-0.006 0.144 0.012 0.194 0.044 0.587-0.075 1.188-0.175 1.744-0.381 0.531-0.2 0.962-0.475 1.356-0.881 0.337-0.35 0.619-0.788 0.65-1.281 0.031-0.55-0.144-1.037-0.363-1.519z">
      </path>
      <path fill="#d6e5e5" style="fill: var(--color2, #d6e5e5)"
        d="M25.369 13.919c-0.688-3.063-3.188-5.525-6.15-6.444-1.4-0.431-2.894-0.581-4.338-0.319-1.281 0.231-2.444 0.806-3.525 1.519-1.156 0.769-2.256 1.688-3.081 2.819-0.581 0.8-1.044 1.769-1.013 2.763 0 0.006-0.006 0.019-0.006 0.025-0.019 0.35-0.056 0.694-0.088 1.044-0.031 0.012-0.056 0.019-0.088 0.025-0.037 0.412-0.1 0.831-0.112 1.25-0.013 0.438-0.013 0.875 0.013 1.319 0.044 0.863 0.156 1.725 0.388 2.556 0.35 1.238 0.938 2.431 1.894 3.313 0.869 0.8 1.944 1.288 3.075 1.544v-0.044c0-0.012 0-0.031 0-0.044 0.006-0.306 0.031-0.594 0.137-0.906 0.125-0.387 0.3-0.781 0.375-1.181 0.037-0.212 0.037-0.244-0.175-0.275-0.319-0.044-0.65-0.019-0.975-0.038-0.381-0.025-0.775-0.081-1.119-0.25-0.35-0.175-0.581-0.413-0.819-0.719-0.5-0.65-0.313-1.5-0.6-2.225-0.056-0.144 0.031-0.363 0.194-0.4 0.631-0.144 1.225-0.025 1.544 0.587 0.244 0.456 0.375 1.175 0.912 1.387 0.688 0.269 1.738-0.275 1.688-1.075-0.044-0.706-0.588-1.262-1.287-1.331-0.031 0-0.056-0.006-0.081-0.019-0.525 0.012-0.988-0.356-1.319-0.75-0.375-0.444-0.662-0.944-0.813-1.506-0.175-0.662-0.231-1.331-0.044-1.994 0.169-0.594 0.644-0.963 1.006-1.419-0.088-0.569-0.363-1.106-0.344-1.694 0.012-0.45 0.331-0.969 0.819-1.012 0.863-0.075 1.65 0.637 2.25 1.225 0.931-0.287 1.931-0.406 2.9-0.431 0.931-0.025 2.019 0.025 2.856 0.5 0.3-0.344 0.756-0.594 1.175-0.731 0.438-0.144 1.044-0.131 1.344 0.269 0.288 0.375 0.106 0.894-0.019 1.294-0.181 0.588 0.025 1.106 0.269 1.637 0.256 0.569 0.481 1.194 0.419 1.831-0.063 0.581-0.313 1.087-0.694 1.525-0.431 0.494-0.944 0.887-1.563 1.119-0.7 0.262-1.425 0.406-2.163 0.494-0.056 0.006-0.106 0-0.15-0.012-0.063 0.075-0.15 0.244-0.169 0.306-0.044 0.125-0.050 0.256-0.025 0.387 0.056 0.288 0.244 0.55 0.413 0.781 0.3 0.413 0.563 0.806 0.738 1.294 0.188 0.525 0.337 1.087 0.387 1.644 0.025 0.275 0.031 0.563-0.038 0.831 0.981-0.488 1.887-1.119 2.688-1.863 2.331-2.169 4.044-5.35 3.313-8.606z">
      </path>
      <path fill="#d6e5e5" style="fill: var(--color2, #d6e5e5)"
        d="M29.825 10.756c-1.331-2.713-3.85-4.844-6.512-6.188-2.669-1.356-5.762-2.069-8.756-1.594-4.931 0.775-9.706 4.394-11.119 9.244 0 0.056-0.013 0.106-0.044 0.162-0.025 0.088-0.050 0.181-0.069 0.269-0.031 0.063-0.063 0.125-0.087 0.194-0.006 0.056-0.019 0.119-0.025 0.169-0.056 0.256-0.125 0.512-0.169 0.769-0.087 0.481-0.069 0.981-0.237 1.438-0.013 0.131-0.031 0.262-0.050 0.394 0 0.019 0 0.031 0 0.044-0.031 0.275-0.056 0.55-0.081 0.825-0.050 0.575-0.075 1.15-0.069 1.725 0.019 1.131 0.15 2.262 0.431 3.356 0.544 2.081 1.594 4.050 3.25 5.456 1.138 0.969 2.469 1.606 3.9 2.019 1.563 0.456 3.188 0.712 4.819 0.719 3.219 0.006 6.45-0.869 9.1-2.731 4.9-3.45 8.594-10.425 5.719-16.269zM15.519 26.144c-2.887 0.262-6.056-0.575-7.7-3.131-0.713-1.106-1.125-2.381-1.319-3.675-0.1-0.675-0.156-1.356-0.156-2.038 0-0.356 0.006-0.712 0.025-1.069 0.025-0.394 0.1-0.781 0.112-1.169 0.006-0.15 0.1-0.256 0.219-0.3-0.219-1.325 0.319-2.619 1.112-3.688 0.938-1.269 2.2-2.313 3.537-3.138 1.106-0.681 2.281-1.219 3.575-1.425 1.438-0.231 2.944-0.112 4.338 0.319 2.913 0.906 5.506 3.1 6.475 6.056 2.1 6.4-4.1 12.7-10.219 13.256z">
      </path>
      <path fill="#000" style="fill: var(--color3, #000)"
        d="M14.25 2.394c-0.537 0.094-1.069 0.219-1.594 0.369h7.762c-2.006-0.556-4.119-0.725-6.169-0.369z"></path>
      <path fill="#000" style="fill: var(--color3, #000)"
        d="M29.806 9.45c-1.575-2.525-4.119-4.475-6.794-5.725-0.837-0.388-1.706-0.712-2.6-0.962h-7.756c-4.506 1.319-8.556 4.825-9.838 9.356-0.206 0.344-0.237 0.819-0.325 1.2-0.063 0.269-0.106 0.544-0.144 0.819-0.006 0.025-0.006 0.056-0.013 0.081-0.006 0.019-0.013 0.031-0.013 0.050-0.050 0.262-0.094 0.525-0.131 0.787 0 0.006-0.006 0.006-0.006 0.012-0.031 0.075-0.038 0.144-0.025 0.2-0.063 0.506-0.106 1.012-0.144 1.519-0.050 0.712-0.056 1.431-0.019 2.144 0.081 1.394 0.35 2.781 0.831 4.094 0.956 2.613 2.844 4.781 5.381 5.956 1.444 0.663 3.050 1.044 4.619 1.25 1.594 0.206 3.219 0.194 4.813-0.038 3.181-0.462 6.156-1.856 8.506-4.050 2.275-2.119 4.063-4.85 4.881-7.863 0.825-2.994 0.431-6.181-1.225-8.831zM24.1 27.031c-2.65 1.863-5.881 2.738-9.1 2.731-1.625-0.006-3.25-0.262-4.813-0.719-1.431-0.419-2.763-1.050-3.9-2.019-1.656-1.406-2.706-3.375-3.25-5.456-0.288-1.094-0.413-2.225-0.431-3.356-0.013-0.575 0.013-1.15 0.069-1.725 0.025-0.275 0.050-0.55 0.081-0.825 0-0.012 0-0.031 0-0.044 0.019-0.131 0.038-0.262 0.050-0.394 0.169-0.456 0.15-0.963 0.237-1.438 0.050-0.256 0.112-0.512 0.169-0.769 0.013-0.050 0.019-0.106 0.025-0.169 0.025-0.063 0.056-0.131 0.087-0.194 0.025-0.088 0.044-0.181 0.069-0.269 0.031-0.056 0.050-0.113 0.044-0.162 1.413-4.856 6.188-8.475 11.119-9.25 2.994-0.475 6.081 0.237 8.756 1.594 2.663 1.344 5.175 3.481 6.512 6.188 2.875 5.844-0.819 12.819-5.725 16.275z">
      </path>
      <path fill="#010101" style="fill: var(--color4, #010101)"
        d="M25.731 12.894c-0.975-2.956-3.563-5.15-6.475-6.056-1.394-0.431-2.894-0.55-4.338-0.319-1.294 0.206-2.469 0.737-3.575 1.425-1.338 0.825-2.594 1.875-3.537 3.138-0.794 1.069-1.331 2.363-1.112 3.688-0.112 0.044-0.213 0.144-0.219 0.3-0.013 0.387-0.094 0.781-0.112 1.169-0.019 0.356-0.025 0.712-0.025 1.069 0.006 0.681 0.056 1.363 0.156 2.038 0.194 1.294 0.606 2.569 1.319 3.675 1.644 2.55 4.813 3.387 7.7 3.131 6.125-0.563 12.325-6.863 10.219-13.256zM18.7 24.394c-0.081 0.106-0.081 0.219-0.044 0.313-1.7 0.712-3.563 1.012-5.4 0.781-0.094-0.012-0.194-0.025-0.287-0.044 0.006-0.387 0.031-0.712 0.162-1.094 0.125-0.375 0.281-0.756 0.356-1.144 0.113-0.613-0.306-0.919-0.863-0.969-0.756-0.063-1.563 0.069-2.156-0.5-0.531-0.506-0.45-1.269-0.588-1.944 0.175 0.006 0.325 0.075 0.444 0.25 0.181 0.262 0.269 0.587 0.406 0.875 0.431 0.869 1.275 1.156 2.188 0.837 0.863-0.3 1.387-1.094 1.175-2.006-0.188-0.788-0.844-1.419-1.644-1.538-0.063-0.044-0.137-0.069-0.238-0.050-0.438 0.081-0.819-0.406-1.056-0.706-0.3-0.387-0.481-0.813-0.594-1.288-0.119-0.525-0.144-1.056 0.037-1.569 0.188-0.525 0.731-0.869 1.031-1.325 0.113-0.169 0.037-0.344-0.094-0.431-0.162-0.575-0.606-1.844 0.094-1.806 0.363 0.019 0.719 0.3 0.988 0.506 0.262 0.2 0.512 0.425 0.744 0.656 0.069 0.069 0.144 0.094 0.225 0.094 0.050 0.006 0.1 0 0.15-0.019 0.856-0.294 1.819-0.406 2.719-0.438 0.956-0.037 2.137-0.019 2.931 0.594 0.225 0.175 0.469-0.031 0.481-0.25 0.225-0.287 0.6-0.5 0.938-0.606 0.175-0.056 0.331-0.063 0.506-0.025 0.181 0.037 0.181 0.15 0.163 0.313-0.044 0.406-0.238 0.756-0.238 1.181 0 0.5 0.2 0.963 0.406 1.412 0.219 0.481 0.394 0.975 0.356 1.506-0.031 0.5-0.313 0.931-0.65 1.281-0.394 0.406-0.825 0.688-1.356 0.881-0.556 0.206-1.156 0.313-1.744 0.381-0.050-0.031-0.113-0.050-0.194-0.044-0.606 0.056-0.887 0.875-0.819 1.4 0.081 0.619 0.556 1.094 0.887 1.594 0.281 0.419 0.419 0.956 0.538 1.444 0.069 0.294 0.113 0.594 0.131 0.9 0.019 0.188 0.025 0.444-0.094 0.594zM22.063 22.519c-0.8 0.744-1.712 1.375-2.688 1.863 0.069-0.269 0.063-0.556 0.038-0.831-0.050-0.556-0.2-1.119-0.387-1.644-0.175-0.488-0.438-0.875-0.738-1.294-0.169-0.238-0.356-0.494-0.413-0.781-0.025-0.131-0.019-0.262 0.025-0.387 0.019-0.063 0.106-0.231 0.169-0.306 0.044 0.012 0.094 0.025 0.15 0.012 0.738-0.087 1.462-0.231 2.163-0.494 0.619-0.231 1.125-0.625 1.563-1.119 0.381-0.438 0.637-0.944 0.694-1.525 0.063-0.637-0.163-1.262-0.419-1.831-0.238-0.537-0.45-1.050-0.269-1.637 0.125-0.4 0.306-0.919 0.019-1.294-0.3-0.4-0.906-0.412-1.344-0.269-0.419 0.137-0.875 0.387-1.175 0.731-0.837-0.481-1.925-0.525-2.856-0.5-0.969 0.025-1.969 0.137-2.9 0.431-0.6-0.588-1.387-1.3-2.25-1.225-0.488 0.044-0.806 0.569-0.819 1.012-0.019 0.581 0.256 1.125 0.344 1.694-0.363 0.456-0.838 0.831-1.006 1.419-0.188 0.662-0.131 1.331 0.044 1.994 0.15 0.563 0.438 1.063 0.813 1.506 0.331 0.394 0.794 0.762 1.319 0.75 0.025 0.006 0.050 0.012 0.081 0.019 0.7 0.069 1.244 0.619 1.287 1.331 0.050 0.794-1.006 1.337-1.688 1.075-0.537-0.212-0.675-0.925-0.912-1.387-0.319-0.613-0.912-0.731-1.544-0.587-0.162 0.038-0.25 0.25-0.194 0.4 0.287 0.725 0.094 1.575 0.6 2.225 0.238 0.306 0.469 0.544 0.819 0.719 0.344 0.169 0.738 0.225 1.119 0.25 0.325 0.019 0.65-0.006 0.975 0.038 0.213 0.031 0.213 0.063 0.175 0.275-0.075 0.4-0.25 0.794-0.375 1.181-0.1 0.313-0.131 0.6-0.137 0.906 0 0.012 0 0.031 0 0.044v0.044c-1.137-0.256-2.206-0.744-3.075-1.544-0.956-0.881-1.55-2.075-1.894-3.313-0.231-0.831-0.344-1.694-0.388-2.556-0.025-0.438-0.025-0.875-0.013-1.319 0.013-0.419 0.075-0.831 0.112-1.25 0.031-0.006 0.063-0.012 0.088-0.025 0.031-0.35 0.069-0.694 0.088-1.044 0-0.006 0-0.019 0.006-0.025-0.031-0.994 0.431-1.956 1.012-2.762 0.819-1.131 1.919-2.050 3.081-2.819 1.075-0.713 2.244-1.287 3.525-1.519 1.45-0.263 2.938-0.112 4.338 0.319 2.962 0.919 5.462 3.381 6.15 6.444 0.725 3.262-0.988 6.444-3.313 8.606z">
      </path>
      </symbol>
      <symbol id="icon-linkedin" viewBox="0 0 32 32">
        <path fill="#4b7bb2" style="fill: var(--color5, #4b7bb2)"
          d="M7.822 2.375c2.137-0.102 5.395-0.473 8.835-0.275 1.947 0.113 7.068-0.229 7.068-0.229 3.267 0 5.839 2.599 6.247 5.84 0.139 1.107 0.53 3.442 0.401 4.477-0.275 2.209 0.151 5.535 0.057 6.445-0.427 4.141-0.22 4.315-0.057 5.741 0.37 3.247-2.653 6.077-5.916 5.916-2.842-0.141-6.416-0.236-9.27 0.017-2.149 0.191-5.834-0.105-7.088-0.017-3.259 0.228-5.894-1.758-5.916-5.916-0.006-1.114-0.404-2.467-0.364-4.44 0.049-2.397 0.342-4.523 0.364-5.601 0.033-1.579 0.005-4.738 0-6.317-0.011-3.267 1.196-5.429 5.639-5.641z">
        </path>
        <path fill="#010101" style="fill: var(--color4, #010101)"
          d="M13.324 30.707c-0.891 0-1.841-0.029-2.724-0.057-1.061-0.033-1.977-0.062-2.477-0.027-1.745 0.124-3.318-0.377-4.428-1.407-1.195-1.109-1.833-2.783-1.845-4.84-0.002-0.432-0.068-0.91-0.143-1.463-0.115-0.839-0.245-1.791-0.221-2.986 0.029-1.448 0.147-2.792 0.241-3.873 0.061-0.701 0.114-1.307 0.123-1.728 0.026-1.249 0.014-3.508 0.005-5.157l-0.005-1.152c-0.013-3.936 1.823-5.779 5.957-5.976v0c0.526-0.025 1.12-0.067 1.769-0.111 2.001-0.14 4.493-0.313 7.101-0.163 1.903 0.109 6.975-0.225 7.027-0.229 0 0 0.001 0 0.001 0 3.332 0 6.159 2.636 6.599 6.131 0.027 0.21 0.062 0.464 0.101 0.745 0.173 1.238 0.409 2.933 0.3 3.814-0.167 1.348-0.065 3.182 0.010 4.521 0.048 0.865 0.086 1.548 0.049 1.917-0.357 3.459-0.269 4.099-0.135 5.069 0.025 0.183 0.052 0.377 0.077 0.601 0.175 1.539-0.374 3.113-1.507 4.322-1.235 1.317-3.014 2.049-4.757 1.965-3.903-0.194-6.921-0.188-9.223 0.017-0.559 0.050-1.209 0.067-1.894 0.067zM8.73 29.94c0.515 0 1.17 0.021 1.891 0.043 1.543 0.048 3.293 0.103 4.537-0.007 2.334-0.208 5.381-0.214 9.316-0.019 1.553 0.082 3.134-0.579 4.237-1.755 1.014-1.081 1.487-2.427 1.332-3.791-0.025-0.219-0.051-0.407-0.075-0.585-0.14-1.017-0.233-1.689 0.132-5.227 0.033-0.316-0.006-1.009-0.051-1.811-0.081-1.441-0.181-3.233-0.005-4.641 0.099-0.794-0.14-2.506-0.299-3.639-0.040-0.285-0.076-0.542-0.103-0.755-0.399-3.163-2.942-5.549-5.917-5.549-0.188 0.013-5.142 0.342-7.087 0.228-2.57-0.149-5.035 0.024-7.017 0.163-0.653 0.045-1.253 0.087-1.783 0.113v0c-3.792 0.181-5.333 1.719-5.321 5.307l0.005 1.151c0.009 1.653 0.021 3.917-0.005 5.175-0.009 0.443-0.063 1.059-0.125 1.773-0.093 1.070-0.21 2.403-0.239 3.828-0.023 1.143 0.103 2.067 0.215 2.882 0.079 0.576 0.147 1.074 0.149 1.549 0.010 1.868 0.574 3.374 1.631 4.355 0.987 0.916 2.347 1.343 3.929 1.231 0.176-0.013 0.397-0.017 0.653-0.017z">
        </path>
        <path fill="#d6e5e5" style="fill: var(--color2, #d6e5e5)"
          d="M10.9 9.168c-0.157 1.815-1.292 1.889-2.070 1.85s-2.227-0.574-2.128-2.005c0.098-1.431 2.219-2.027 2.219-2.027s2.127 0.477 1.979 2.181z">
        </path>
        <path fill="#010101" style="fill: var(--color4, #010101)"
          d="M10.539 7.417c-0.417-0.396-0.9-0.645-1.474-0.743-0.713-0.123-1.079 0.183-1.601 0.624-0.973 0.821-1.475 2.089-0.657 3.231 0.819 1.143 3.042 1.195 3.949 0.171 0.465-0.524 0.58-1.171 0.523-1.855-0.069-0.816-0.432-1.284-1.023-1.808-0.32-0.283-0.793 0.186-0.471 0.471 0.437 0.387 0.707 0.635 0.811 1.255 0.095 0.557 0.013 1.133-0.391 1.554-0.427 0.446-1.143 0.394-1.727 0.364-0.661-0.033-1.135-0.373-1.342-1.002-0.281-0.857 0.309-1.434 0.899-1.943 0.389-0.336 0.753-0.521 1.284-0.332 0.209 0.074 0.572 0.315 0.749 0.483 0.311 0.296 0.783-0.175 0.471-0.471v0z">
        </path>
        <path fill="#d6e5e5" style="fill: var(--color2, #d6e5e5)"
          d="M6.942 13.664l0.568 13.016 3.746 0.065-0.385-12.939z"></path>
        <path fill="#010101" style="fill: var(--color4, #010101)"
          d="M6.609 13.664c0.48 4.297 0.521 8.561 0.521 12.874 0 0.429 0.667 0.43 0.667 0 0-4.313-0.041-8.577-0.521-12.874-0.047-0.421-0.714-0.426-0.667 0v0z">
        </path>
        <path fill="#010101" style="fill: var(--color4, #010101)"
          d="M11.192 13.895c0.010-0.029 0.019-0.059 0.029-0.087 0.075-0.221-0.119-0.405-0.321-0.422-1.315-0.113-2.637-0.102-3.958-0.102-0.429 0-0.43 0.667 0 0.667 1.321 0 2.643-0.011 3.958 0.102-0.107-0.141-0.214-0.281-0.321-0.422-0.010 0.029-0.019 0.059-0.029 0.087-0.137 0.408 0.506 0.583 0.643 0.177v0z">
        </path>
        <path fill="#010101" style="fill: var(--color4, #010101)"
          d="M10.687 14.081c-0.254-0.053-0.099 2.517-0.093 2.703 0.039 1.163 0.013 2.334 0.095 3.496 0.144 2.046 0.235 4.159 0.226 6.211-0.002 0.429 0.665 0.429 0.667 0 0.019-4.235-0.364-8.486-0.434-12.724-0.002-0.139-0.101-0.292-0.245-0.321-0.013-0.003-0.026-0.005-0.039-0.008-0.419-0.086-0.598 0.557-0.177 0.643v0z">
        </path>
        <path fill="#010101" style="fill: var(--color4, #010101)"
          d="M7.51 26.347c-0.011 0-0.021 0-0.031 0 0 0.222 0 0.445 0 0.667 0.834 0 1.665-0.009 2.495 0.043 0.413 0.025 0.975 0.157 1.37 0.011-0.125-0.163-0.251-0.327-0.377-0.49-0.018 0.025-0.036 0.051-0.054 0.077-0.247 0.351 0.33 0.685 0.575 0.337 0.018-0.025 0.036-0.051 0.054-0.077 0.163-0.231-0.109-0.589-0.377-0.489-0.401 0.149-1.036-0.059-1.456-0.078-0.741-0.034-1.491 0.001-2.233 0.001-0.429 0-0.43 0.667 0 0.667 0.011 0 0.021 0 0.031 0 0.431-0.001 0.431-0.667 0.001-0.667v0z">
        </path>
        <path fill="#d6e5e5" style="fill: var(--color2, #d6e5e5)"
          d="M13.237 13.617l0.379 9.253-0.040 3.995 3.282 0.206c0 0-0.023-2.616 0-2.853s-0.491-4.147-0.127-4.499c0.364-0.353 1.686-2.033 1.879-1.961s1.988-0.517 1.988-0.517 1.161 0.421 1.203 0.456 0.865 1.203 0.865 1.203l0.227 2.172 0.079 5.017 0.489 0.584 2.402 0.087 0.201-4.953-0.263-2.752-0.976-4.017-2.524-1.467-3.715 0.615-1.427 1.001-0.437-1.61-3.485 0.041z">
        </path>
        <path fill="#010101" style="fill: var(--color4, #010101)"
          d="M12.916 13.705c0.461 1.887 0.235 4.177 0.272 6.113 0.045 2.315-0.124 4.75 0.055 7.047 0.018 0.233 0.275 0.44 0.501 0.288 0.045-0.030 0.090-0.061 0.135-0.091 0.354-0.238 0.021-0.816-0.337-0.575-0.045 0.030-0.090 0.061-0.135 0.091 0.167 0.096 0.335 0.192 0.501 0.288-0.192-2.469-0.045-5.102-0.055-7.591-0.007-1.826 0.138-3.969-0.296-5.745-0.101-0.417-0.744-0.241-0.642 0.177v0z">
        </path>
        <path fill="#010101" style="fill: var(--color4, #010101)"
          d="M13.096 13.097c-0.009 0.012-0.019 0.025-0.029 0.037-0.105 0.134-0.149 0.342 0 0.471 0.285 0.248 0.73 0.169 1.084 0.192 0.826 0.054 1.657-0.013 2.481 0.099-0.077-0.137-0.155-0.273-0.233-0.41-0.125 0.668 0.017 1.253 0.435 1.785 0.265 0.337 0.733-0.137 0.471-0.471-0.254-0.324-0.339-0.737-0.263-1.137 0.030-0.158-0.043-0.384-0.233-0.41-0.639-0.087-1.283-0.113-1.929-0.113-0.297 0-0.587-0.031-0.88-0.044-0.073-0.003-0.441 0.055-0.463 0.036 0 0.157 0 0.314 0 0.471 0.009-0.012 0.019-0.025 0.029-0.037 0.261-0.334-0.208-0.809-0.471-0.471v0z">
        </path>
        <path fill="#010101" style="fill: var(--color4, #010101)"
          d="M17.069 15.226c-0.001 0.010-0.001 0.020-0.001 0.030-0.013 0.353 0.445 0.424 0.621 0.168 0.875-1.271 3.546-1.616 4.885-1.337 2.279 0.475 2.407 2.319 2.789 4.285 0.289 1.489 0.351 3.051 0.32 4.568-0.025 1.206-0.433 2.725-0.142 3.907 0.085 0.343 0.535 0.289 0.643 0 0.004-0.011 0.008-0.021 0.011-0.031 0.15-0.403-0.494-0.576-0.643-0.177-0.004 0.011-0.008 0.021-0.011 0.031 0.214 0 0.429 0 0.643 0-0.241-0.978 0.141-2.176 0.164-3.185 0.025-1.069-0.013-2.143-0.069-3.209-0.090-1.698-0.297-4.175-1.301-5.595-0.78-1.104-2.365-1.514-3.685-1.432-1.245 0.077-3.429 0.749-4.179 1.839 0.207 0.056 0.414 0.112 0.621 0.168 0.001-0.010 0.001-0.020 0.001-0.030 0.015-0.428-0.651-0.427-0.667 0.001v0z">
        </path>
        <path fill="#010101" style="fill: var(--color4, #010101)"
          d="M13.589 26.629c-0.027 0.017-0.053 0.034-0.081 0.051-0.227 0.144-0.214 0.547 0.079 0.609 1.037 0.218 2.322 0.191 3.37-0.017 0.145-0.029 0.241-0.183 0.245-0.321 0.049-2.045-0.627-4.521-0.178-6.517 0.277-1.231 1.249-1.983 2.325-2.507 2.004-0.976 3.107 0.617 3.209 2.489 0.060 1.089 0.009 2.193 0.047 3.283 0.029 0.828-0.151 1.845 0.057 2.646 0.337 1.3 1.918 0.879 2.897 0.681 0.42-0.085 0.243-0.727-0.177-0.643-0.776 0.157-1.767 0.411-2.076-0.427-0.159-0.431 0.003-1.315-0.016-1.804-0.057-1.459 0.061-2.968-0.115-4.415-0.23-1.899-1.733-3.307-3.689-2.629-0.851 0.295-1.637 0.941-2.3 1.533-0.951 0.849-0.881 1.649-0.881 2.931-0.001 1.307 0.213 2.593 0.247 3.894 0.007 0.257 0.091 0.907-0.008 1.171-0.049 0.13 0.479 0.149-0.423 0.090-0.764-0.049-1.607 0.078-2.356-0.079 0.027 0.203 0.053 0.406 0.079 0.609 0.027-0.017 0.053-0.034 0.081-0.051 0.362-0.23 0.028-0.807-0.336-0.577v0z">
        </path>
      </symbol>
  </defs>
</svg>
